<svg xmlns="http://www.w3.org/2000/svg" xmlns:xlink="http://www.w3.org/1999/xlink" width="500" zoomAndPan="magnify" viewBox="0 0 375 374.999991" height="500" preserveAspectRatio="xMidYMid meet" version="1.0"><defs><clipPath id="22da314a06"><path d="M 162 287 L 213 287 L 213 337.5 L 162 337.5 Z M 162 287 " clip-rule="nonzero"/></clipPath><clipPath id="e07222d254"><path d="M 99.953125 37.5 L 274.703125 37.5 L 274.703125 269 L 99.953125 269 Z M 99.953125 37.5 " clip-rule="nonzero"/></clipPath></defs><g clip-path="url(#22da314a06)"><path fill="#000000" d="M 212.292969 312.25 C 212.292969 313.070312 212.253906 313.886719 212.171875 314.703125 C 212.09375 315.519531 211.972656 316.328125 211.8125 317.132812 C 211.65625 317.933594 211.457031 318.726562 211.21875 319.511719 C 210.980469 320.296875 210.707031 321.066406 210.394531 321.824219 C 210.082031 322.582031 209.730469 323.320312 209.347656 324.042969 C 208.960938 324.765625 208.539062 325.464844 208.085938 326.148438 C 207.632812 326.828125 207.144531 327.484375 206.628906 328.121094 C 206.109375 328.753906 205.558594 329.359375 204.980469 329.9375 C 204.402344 330.515625 203.796875 331.066406 203.167969 331.585938 C 202.535156 332.105469 201.878906 332.59375 201.199219 333.050781 C 200.519531 333.503906 199.820312 333.925781 199.097656 334.3125 C 198.375 334.695312 197.636719 335.046875 196.882812 335.359375 C 196.128906 335.671875 195.359375 335.949219 194.578125 336.1875 C 193.792969 336.425781 193 336.625 192.199219 336.785156 C 191.398438 336.945312 190.589844 337.0625 189.777344 337.144531 C 188.960938 337.222656 188.148438 337.265625 187.328125 337.265625 C 186.511719 337.265625 185.695312 337.222656 184.882812 337.144531 C 184.070312 337.0625 183.261719 336.945312 182.460938 336.785156 C 181.65625 336.625 180.863281 336.425781 180.082031 336.1875 C 179.300781 335.949219 178.53125 335.671875 177.777344 335.359375 C 177.019531 335.046875 176.28125 334.695312 175.5625 334.3125 C 174.839844 333.925781 174.140625 333.503906 173.460938 333.050781 C 172.78125 332.59375 172.125 332.105469 171.492188 331.585938 C 170.859375 331.066406 170.253906 330.515625 169.675781 329.9375 C 169.097656 329.359375 168.550781 328.753906 168.03125 328.121094 C 167.511719 327.484375 167.027344 326.828125 166.574219 326.148438 C 166.117188 325.464844 165.699219 324.765625 165.3125 324.042969 C 164.925781 323.320312 164.578125 322.582031 164.265625 321.824219 C 163.953125 321.066406 163.675781 320.296875 163.441406 319.511719 C 163.203125 318.726562 163.003906 317.933594 162.84375 317.132812 C 162.683594 316.328125 162.566406 315.519531 162.484375 314.703125 C 162.40625 313.886719 162.367188 313.070312 162.367188 312.25 C 162.367188 311.433594 162.40625 310.613281 162.484375 309.800781 C 162.566406 308.984375 162.683594 308.175781 162.84375 307.371094 C 163.003906 306.566406 163.203125 305.773438 163.441406 304.992188 C 163.675781 304.207031 163.953125 303.4375 164.265625 302.679688 C 164.578125 301.921875 164.925781 301.183594 165.3125 300.460938 C 165.699219 299.738281 166.117188 299.035156 166.574219 298.355469 C 167.027344 297.675781 167.511719 297.015625 168.03125 296.382812 C 168.550781 295.75 169.097656 295.144531 169.675781 294.566406 C 170.253906 293.984375 170.859375 293.4375 171.492188 292.917969 C 172.125 292.398438 172.78125 291.910156 173.460938 291.453125 C 174.140625 291 174.839844 290.578125 175.5625 290.191406 C 176.28125 289.804688 177.019531 289.457031 177.777344 289.144531 C 178.53125 288.828125 179.300781 288.554688 180.082031 288.316406 C 180.863281 288.078125 181.65625 287.878906 182.460938 287.71875 C 183.261719 287.558594 184.070312 287.4375 184.882812 287.359375 C 185.695312 287.277344 186.511719 287.238281 187.328125 287.238281 C 188.148438 287.238281 188.960938 287.277344 189.777344 287.359375 C 190.589844 287.4375 191.398438 287.558594 192.199219 287.71875 C 193 287.878906 193.792969 288.078125 194.578125 288.316406 C 195.359375 288.554688 196.128906 288.828125 196.882812 289.144531 C 197.636719 289.457031 198.375 289.804688 199.097656 290.191406 C 199.820312 290.578125 200.519531 291 201.199219 291.453125 C 201.878906 291.910156 202.535156 292.398438 203.167969 292.917969 C 203.796875 293.4375 204.402344 293.984375 204.980469 294.566406 C 205.558594 295.144531 206.109375 295.75 206.628906 296.382812 C 207.144531 297.015625 207.632812 297.675781 208.085938 298.355469 C 208.539062 299.035156 208.960938 299.738281 209.347656 300.460938 C 209.730469 301.183594 210.082031 301.921875 210.394531 302.679688 C 210.707031 303.4375 210.980469 304.207031 211.21875 304.992188 C 211.457031 305.773438 211.65625 306.566406 211.8125 307.371094 C 211.972656 308.175781 212.09375 308.984375 212.171875 309.800781 C 212.253906 310.613281 212.292969 311.433594 212.292969 312.25 Z M 212.292969 312.25 " fill-opacity="1" fill-rule="nonzero"/></g><g clip-path="url(#e07222d254)"><path fill="#000000" d="M 274.703125 124.65625 C 274.703125 123.222656 274.667969 121.789062 274.597656 120.359375 C 274.527344 118.929688 274.425781 117.5 274.285156 116.074219 C 274.144531 114.648438 273.96875 113.226562 273.757812 111.808594 C 273.550781 110.390625 273.304688 108.980469 273.027344 107.574219 C 272.746094 106.171875 272.433594 104.773438 272.085938 103.382812 C 271.738281 101.992188 271.355469 100.613281 270.941406 99.242188 C 270.527344 97.871094 270.078125 96.511719 269.597656 95.164062 C 269.113281 93.8125 268.601562 92.476562 268.054688 91.152344 C 267.507812 89.828125 266.925781 88.519531 266.316406 87.226562 C 265.703125 85.929688 265.0625 84.652344 264.386719 83.386719 C 263.714844 82.125 263.007812 80.878906 262.273438 79.648438 C 261.539062 78.417969 260.773438 77.210938 259.980469 76.019531 C 259.183594 74.828125 258.363281 73.65625 257.507812 72.503906 C 256.65625 71.355469 255.777344 70.226562 254.871094 69.117188 C 253.964844 68.011719 253.03125 66.925781 252.070312 65.863281 C 251.109375 64.800781 250.125 63.765625 249.113281 62.75 C 248.101562 61.738281 247.066406 60.75 246.007812 59.789062 C 244.949219 58.828125 243.863281 57.890625 242.757812 56.980469 C 241.652344 56.074219 240.527344 55.191406 239.378906 54.339844 C 238.230469 53.484375 237.0625 52.660156 235.871094 51.863281 C 234.683594 51.066406 233.476562 50.300781 232.25 49.566406 C 231.023438 48.828125 229.777344 48.121094 228.519531 47.449219 C 227.257812 46.773438 225.980469 46.128906 224.6875 45.515625 C 223.394531 44.902344 222.085938 44.324219 220.765625 43.773438 C 219.445312 43.226562 218.113281 42.710938 216.765625 42.226562 C 215.417969 41.746094 214.0625 41.296875 212.691406 40.878906 C 211.324219 40.464844 209.945312 40.082031 208.558594 39.734375 C 207.171875 39.386719 205.777344 39.070312 204.375 38.792969 C 202.972656 38.511719 201.566406 38.269531 200.148438 38.058594 C 198.734375 37.847656 197.316406 37.671875 195.894531 37.53125 C 194.46875 37.390625 193.046875 37.285156 191.617188 37.214844 C 190.1875 37.144531 188.757812 37.109375 187.328125 37.109375 C 185.898438 37.109375 184.46875 37.144531 183.042969 37.214844 C 181.613281 37.285156 180.1875 37.390625 178.765625 37.53125 C 177.34375 37.671875 175.921875 37.847656 174.507812 38.058594 C 173.09375 38.269531 171.6875 38.511719 170.285156 38.792969 C 168.882812 39.070312 167.484375 39.386719 166.097656 39.734375 C 164.710938 40.082031 163.335938 40.464844 161.964844 40.878906 C 160.597656 41.296875 159.238281 41.746094 157.894531 42.226562 C 156.546875 42.710938 155.214844 43.226562 153.890625 43.773438 C 152.570312 44.324219 151.265625 44.902344 149.972656 45.515625 C 148.679688 46.128906 147.402344 46.773438 146.140625 47.449219 C 144.878906 48.121094 143.636719 48.828125 142.410156 49.566406 C 141.183594 50.300781 139.976562 51.066406 138.785156 51.863281 C 137.597656 52.660156 136.429688 53.484375 135.28125 54.339844 C 134.132812 55.191406 133.003906 56.074219 131.898438 56.980469 C 130.792969 57.890625 129.710938 58.828125 128.652344 59.789062 C 127.59375 60.75 126.558594 61.738281 125.546875 62.75 C 124.535156 63.765625 123.550781 64.800781 122.589844 65.863281 C 121.628906 66.925781 120.695312 68.011719 119.789062 69.117188 C 118.878906 70.226562 118 71.355469 117.148438 72.503906 C 116.296875 73.65625 115.472656 74.828125 114.679688 76.019531 C 113.886719 77.210938 113.121094 78.417969 112.386719 79.648438 C 111.648438 80.878906 110.945312 82.125 110.273438 83.386719 C 109.597656 84.652344 108.953125 85.929688 108.34375 87.226562 C 107.730469 88.519531 107.152344 89.828125 106.605469 91.152344 C 106.058594 92.476562 105.542969 93.8125 105.0625 95.164062 C 104.582031 96.511719 104.132812 97.871094 103.71875 99.242188 C 103.300781 100.613281 102.921875 101.992188 102.574219 103.382812 C 102.226562 104.773438 101.914062 106.171875 101.632812 107.574219 C 101.355469 108.980469 101.109375 110.390625 100.898438 111.808594 C 100.691406 113.226562 100.515625 114.648438 100.375 116.074219 C 100.234375 117.5 100.128906 118.929688 100.058594 120.359375 C 99.988281 121.789062 99.953125 123.222656 99.953125 124.65625 C 99.953125 125.472656 99.996094 126.292969 100.074219 127.105469 C 100.15625 127.921875 100.273438 128.730469 100.433594 129.535156 C 100.59375 130.339844 100.792969 131.132812 101.03125 131.917969 C 101.265625 132.699219 101.542969 133.46875 101.855469 134.226562 C 102.167969 134.984375 102.515625 135.722656 102.902344 136.445312 C 103.289062 137.167969 103.707031 137.871094 104.160156 138.550781 C 104.617188 139.234375 105.101562 139.890625 105.621094 140.523438 C 106.140625 141.15625 106.6875 141.761719 107.265625 142.34375 C 107.84375 142.921875 108.449219 143.46875 109.082031 143.992188 C 109.714844 144.511719 110.371094 144.996094 111.050781 145.453125 C 111.730469 145.90625 112.429688 146.328125 113.152344 146.714844 C 113.871094 147.101562 114.609375 147.449219 115.367188 147.765625 C 116.121094 148.078125 116.890625 148.351562 117.671875 148.589844 C 118.453125 148.828125 119.246094 149.027344 120.046875 149.1875 C 120.851562 149.347656 121.660156 149.46875 122.472656 149.546875 C 123.285156 149.628906 124.101562 149.667969 124.917969 149.667969 C 125.738281 149.667969 126.550781 149.628906 127.367188 149.546875 C 128.179688 149.46875 128.988281 149.347656 129.789062 149.1875 C 130.589844 149.027344 131.382812 148.828125 132.164062 148.589844 C 132.949219 148.351562 133.71875 148.078125 134.472656 147.765625 C 135.226562 147.449219 135.964844 147.101562 136.6875 146.714844 C 137.40625 146.328125 138.109375 145.90625 138.789062 145.453125 C 139.46875 144.996094 140.125 144.511719 140.757812 143.992188 C 141.386719 143.46875 141.992188 142.921875 142.570312 142.34375 C 143.148438 141.761719 143.699219 141.15625 144.214844 140.523438 C 144.734375 139.890625 145.222656 139.234375 145.675781 138.550781 C 146.128906 137.871094 146.550781 137.167969 146.933594 136.445312 C 147.320312 135.722656 147.667969 134.984375 147.984375 134.226562 C 148.296875 133.46875 148.570312 132.699219 148.808594 131.917969 C 149.046875 131.132812 149.242188 130.339844 149.402344 129.535156 C 149.5625 128.730469 149.683594 127.921875 149.761719 127.105469 C 149.84375 126.292969 149.882812 125.472656 149.882812 124.65625 C 149.882812 123.425781 149.941406 122.199219 150.0625 120.976562 C 150.183594 119.753906 150.363281 118.539062 150.601562 117.335938 C 150.84375 116.128906 151.140625 114.941406 151.496094 113.765625 C 151.851562 112.589844 152.265625 111.433594 152.734375 110.296875 C 153.203125 109.160156 153.726562 108.050781 154.304688 106.96875 C 154.882812 105.886719 155.511719 104.832031 156.195312 103.8125 C 156.875 102.789062 157.605469 101.804688 158.382812 100.851562 C 159.160156 99.902344 159.984375 98.992188 160.851562 98.125 C 161.71875 97.257812 162.625 96.433594 163.574219 95.652344 C 164.523438 94.871094 165.503906 94.140625 166.527344 93.460938 C 167.546875 92.777344 168.597656 92.144531 169.675781 91.566406 C 170.757812 90.988281 171.867188 90.460938 173 89.992188 C 174.132812 89.523438 175.285156 89.109375 176.460938 88.75 C 177.632812 88.394531 178.820312 88.097656 180.023438 87.855469 C 181.226562 87.617188 182.4375 87.4375 183.660156 87.316406 C 184.878906 87.195312 186.101562 87.136719 187.328125 87.136719 C 188.554688 87.136719 189.78125 87.195312 191 87.316406 C 192.21875 87.4375 193.433594 87.617188 194.636719 87.855469 C 195.835938 88.097656 197.027344 88.394531 198.199219 88.75 C 199.375 89.109375 200.527344 89.523438 201.660156 89.992188 C 202.792969 90.460938 203.898438 90.988281 204.980469 91.566406 C 206.0625 92.144531 207.113281 92.777344 208.132812 93.460938 C 209.152344 94.140625 210.136719 94.871094 211.085938 95.652344 C 212.035156 96.433594 212.941406 97.257812 213.808594 98.125 C 214.675781 98.992188 215.496094 99.902344 216.277344 100.851562 C 217.054688 101.804688 217.785156 102.789062 218.464844 103.8125 C 219.144531 104.832031 219.777344 105.886719 220.355469 106.96875 C 220.933594 108.050781 221.457031 109.160156 221.925781 110.296875 C 222.394531 111.433594 222.808594 112.589844 223.164062 113.765625 C 223.519531 114.941406 223.816406 116.128906 224.054688 117.335938 C 224.296875 118.539062 224.476562 119.753906 224.59375 120.976562 C 224.714844 122.199219 224.777344 123.425781 224.777344 124.65625 C 224.777344 125.882812 224.714844 127.109375 224.59375 128.332031 C 224.476562 129.554688 224.296875 130.769531 224.054688 131.976562 C 223.816406 133.179688 223.519531 134.371094 223.164062 135.546875 C 222.808594 136.722656 222.394531 137.878906 221.925781 139.011719 C 221.457031 140.148438 220.933594 141.257812 220.355469 142.339844 C 219.777344 143.425781 219.144531 144.476562 218.464844 145.5 C 217.785156 146.523438 217.054688 147.507812 216.277344 148.457031 C 215.496094 149.40625 214.675781 150.316406 213.808594 151.183594 C 212.941406 152.054688 212.035156 152.878906 211.085938 153.65625 C 210.136719 154.4375 209.152344 155.167969 208.132812 155.851562 C 207.113281 156.535156 206.0625 157.164062 204.980469 157.746094 C 203.898438 158.324219 202.792969 158.847656 201.660156 159.320312 C 200.527344 159.789062 199.375 160.203125 198.199219 160.558594 C 197.027344 160.914062 195.835938 161.214844 194.636719 161.453125 C 193.433594 161.691406 192.21875 161.875 191 161.992188 C 189.78125 162.113281 188.554688 162.175781 187.328125 162.175781 C 186.511719 162.175781 185.695312 162.214844 184.882812 162.296875 C 184.070312 162.375 183.261719 162.496094 182.460938 162.65625 C 181.65625 162.816406 180.867188 163.015625 180.082031 163.25 C 179.300781 163.488281 178.53125 163.765625 177.777344 164.078125 C 177.019531 164.390625 176.28125 164.742188 175.5625 165.128906 C 174.839844 165.515625 174.140625 165.933594 173.460938 166.390625 C 172.78125 166.84375 172.125 167.332031 171.492188 167.851562 C 170.859375 168.371094 170.253906 168.921875 169.675781 169.5 C 169.097656 170.082031 168.550781 170.6875 168.03125 171.320312 C 167.511719 171.953125 167.027344 172.609375 166.574219 173.292969 C 166.117188 173.972656 165.699219 174.675781 165.3125 175.398438 C 164.929688 176.117188 164.578125 176.859375 164.265625 177.617188 C 163.953125 178.371094 163.679688 179.144531 163.441406 179.925781 C 163.203125 180.710938 163.003906 181.503906 162.84375 182.308594 C 162.6875 183.109375 162.566406 183.921875 162.484375 184.734375 C 162.40625 185.550781 162.367188 186.367188 162.367188 187.1875 L 162.367188 243.464844 C 162.367188 244.285156 162.40625 245.101562 162.484375 245.917969 C 162.566406 246.734375 162.683594 247.542969 162.84375 248.347656 C 163.003906 249.148438 163.203125 249.941406 163.441406 250.726562 C 163.675781 251.511719 163.953125 252.28125 164.265625 253.039062 C 164.578125 253.796875 164.925781 254.535156 165.3125 255.257812 C 165.699219 255.980469 166.117188 256.679688 166.574219 257.363281 C 167.027344 258.042969 167.511719 258.699219 168.03125 259.335938 C 168.550781 259.96875 169.097656 260.574219 169.675781 261.152344 C 170.253906 261.730469 170.859375 262.28125 171.492188 262.800781 C 172.125 263.320312 172.78125 263.808594 173.460938 264.261719 C 174.140625 264.71875 174.839844 265.140625 175.5625 265.527344 C 176.28125 265.910156 177.019531 266.261719 177.777344 266.574219 C 178.53125 266.886719 179.300781 267.164062 180.082031 267.402344 C 180.863281 267.640625 181.65625 267.839844 182.460938 268 C 183.261719 268.160156 184.070312 268.277344 184.882812 268.359375 C 185.695312 268.4375 186.511719 268.480469 187.328125 268.480469 C 188.148438 268.480469 188.960938 268.4375 189.777344 268.359375 C 190.589844 268.277344 191.398438 268.160156 192.199219 268 C 193 267.839844 193.792969 267.640625 194.578125 267.402344 C 195.359375 267.164062 196.128906 266.886719 196.882812 266.574219 C 197.636719 266.261719 198.375 265.910156 199.097656 265.527344 C 199.820312 265.140625 200.519531 264.71875 201.199219 264.261719 C 201.878906 263.808594 202.535156 263.320312 203.167969 262.800781 C 203.796875 262.28125 204.402344 261.730469 204.980469 261.152344 C 205.558594 260.574219 206.109375 259.96875 206.628906 259.335938 C 207.144531 258.699219 207.632812 258.042969 208.085938 257.363281 C 208.539062 256.679688 208.960938 255.980469 209.347656 255.257812 C 209.730469 254.535156 210.082031 253.796875 210.394531 253.039062 C 210.707031 252.28125 210.980469 251.511719 211.21875 250.726562 C 211.457031 249.941406 211.65625 249.148438 211.8125 248.347656 C 211.972656 247.542969 212.09375 246.734375 212.171875 245.917969 C 212.253906 245.101562 212.292969 244.285156 212.292969 243.464844 L 212.292969 208.511719 C 214.527344 207.84375 216.730469 207.085938 218.90625 206.238281 C 221.078125 205.390625 223.214844 204.460938 225.3125 203.441406 C 227.414062 202.425781 229.46875 201.324219 231.480469 200.144531 C 233.492188 198.960938 235.453125 197.699219 237.363281 196.363281 C 239.273438 195.023438 241.128906 193.609375 242.925781 192.121094 C 244.722656 190.632812 246.457031 189.074219 248.132812 187.449219 C 249.804688 185.820312 251.414062 184.132812 252.949219 182.375 C 254.488281 180.621094 255.957031 178.804688 257.351562 176.933594 C 258.742188 175.058594 260.0625 173.132812 261.300781 171.15625 C 262.542969 169.175781 263.699219 167.152344 264.78125 165.082031 C 265.859375 163.007812 266.851562 160.898438 267.761719 158.746094 C 268.671875 156.597656 269.496094 154.414062 270.234375 152.195312 C 270.96875 149.976562 271.613281 147.734375 272.171875 145.46875 C 272.730469 143.199219 273.195312 140.910156 273.570312 138.605469 C 273.945312 136.296875 274.226562 133.980469 274.414062 131.652344 C 274.605469 129.324219 274.699219 126.992188 274.703125 124.65625 Z M 274.703125 124.65625 " fill-opacity="1" fill-rule="nonzero"/></g></svg>