<svg xmlns="http://www.w3.org/2000/svg" xmlns:xlink="http://www.w3.org/1999/xlink" width="500" zoomAndPan="magnify" viewBox="0 0 375 374.999991" height="500" preserveAspectRatio="xMidYMid meet" version="1.0"><defs><clipPath id="61e5e54be3"><path d="M 37.5 42 L 337.5 42 L 337.5 336 L 37.5 336 Z M 37.5 42 " clip-rule="nonzero"/></clipPath></defs><g clip-path="url(#61e5e54be3)"><path fill="#000000" d="M 195.820312 74.574219 C 190.78125 71.214844 184.21875 71.214844 179.179688 74.574219 L 74.179688 144.574219 C 70.007812 147.355469 67.5 152.039062 67.5 157.054688 L 67.5 291 C 67.5 299.285156 74.214844 306 82.5 306 L 127.5 306 L 127.5 246 C 127.5 221.148438 147.648438 201 172.5 201 L 202.5 201 C 227.351562 201 247.5 221.148438 247.5 246 L 247.5 306 L 292.5 306 C 300.785156 306 307.5 299.285156 307.5 291 L 307.5 157.054688 C 307.5 152.039062 304.992188 147.355469 300.820312 144.574219 Z M 162.539062 49.613281 C 177.652344 39.535156 197.347656 39.535156 212.460938 49.613281 L 317.460938 119.613281 C 329.980469 127.960938 337.5 142.007812 337.5 157.054688 L 337.5 291 C 337.5 315.851562 317.351562 336 292.5 336 L 232.5 336 C 224.214844 336 217.5 329.285156 217.5 321 L 217.5 246 C 217.5 237.714844 210.785156 231 202.5 231 L 172.5 231 C 164.214844 231 157.5 237.714844 157.5 246 L 157.5 321 C 157.5 329.285156 150.785156 336 142.5 336 L 82.5 336 C 57.648438 336 37.5 315.851562 37.5 291 L 37.5 157.054688 C 37.5 142.007812 45.019531 127.960938 57.539062 119.613281 Z M 162.539062 49.613281 " fill-opacity="1" fill-rule="evenodd"/></g></svg>