<svg xmlns="http://www.w3.org/2000/svg" xmlns:xlink="http://www.w3.org/1999/xlink" width="500" zoomAndPan="magnify" viewBox="0 0 375 374.999991" height="500" preserveAspectRatio="xMidYMid meet" version="1.0"><defs><clipPath id="a0819cfa10"><path d="M 42.523438 78.769531 L 332.773438 78.769531 L 332.773438 296.269531 L 42.523438 296.269531 Z M 42.523438 78.769531 " clip-rule="nonzero"/></clipPath></defs><g clip-path="url(#a0819cfa10)"><path fill="#000000" d="M 332.761719 78.769531 L 332.761719 264.5625 C 332.761719 282.644531 319.515625 296.265625 302.960938 296.265625 L 81.960938 296.265625 C 54.621094 296.265625 42.527344 284.566406 42.527344 249.945312 L 42.527344 116.476562 L 80.804688 116.476562 L 80.804688 78.777344 L 332.753906 78.777344 Z M 80.8125 134.714844 L 60.792969 134.714844 L 60.792969 249.941406 C 60.792969 267.636719 65.027344 276.101562 70.417969 276.101562 C 76.964844 276.101562 80.8125 267.636719 80.8125 249.941406 Z M 314.511719 97.011719 L 99.0625 97.011719 L 99.0625 249.9375 C 99.0625 262.246094 96.753906 271.09375 93.289062 278.019531 L 302.96875 278.019531 C 309.898438 278.019531 314.519531 269.941406 314.519531 264.554688 Z M 183.605469 172.636719 L 130.175781 172.636719 L 130.175781 165.710938 L 183.605469 165.710938 Z M 183.605469 195.332031 L 130.175781 195.332031 L 130.175781 188.40625 L 183.605469 188.40625 Z M 183.605469 217.257812 L 130.175781 217.257812 L 130.175781 210.335938 L 183.605469 210.335938 Z M 183.605469 238.417969 L 130.175781 238.417969 L 130.175781 231.492188 L 183.605469 231.492188 Z M 142.027344 129.933594 L 270.234375 129.933594 L 270.234375 142.761719 L 142.027344 142.761719 Z M 202.859375 165.710938 L 284.867188 165.710938 L 284.867188 231.136719 L 202.859375 231.136719 Z M 202.859375 165.710938 " fill-opacity="1" fill-rule="nonzero"/></g></svg>