<svg xmlns="http://www.w3.org/2000/svg" xmlns:xlink="http://www.w3.org/1999/xlink" width="500" zoomAndPan="magnify" viewBox="0 0 375 374.999991" height="500" preserveAspectRatio="xMidYMid meet" version="1.0"><defs><clipPath id="d93f107ebf"><path d="M 35.277344 38 L 337 38 L 337 339.75 L 35.277344 339.75 Z M 35.277344 38 " clip-rule="nonzero"/></clipPath></defs><g clip-path="url(#d93f107ebf)"><path fill="#000000" d="M 177.203125 38.152344 C 174.058594 38.152344 171.351562 40.402344 170.761719 43.519531 L 167.289062 62.535156 C 164.015625 63.554688 160.847656 64.835938 157.78125 66.394531 L 142.167969 55.125 C 139.585938 53.257812 136.03125 53.511719 133.757812 55.789062 L 119.78125 69.5625 C 117.53125 71.785156 117.199219 75.3125 119.011719 77.917969 L 129.976562 93.789062 C 128.390625 96.855469 127.0625 100.023438 125.988281 103.269531 L 106.976562 106.335938 C 103.832031 106.847656 101.507812 109.554688 101.480469 112.75 L 101.355469 132.378906 C 101.328125 135.546875 103.601562 138.28125 106.722656 138.84375 L 125.785156 142.320312 C 126.808594 145.5625 128.109375 148.707031 129.644531 151.75 L 118.324219 167.441406 C 116.457031 170.019531 116.714844 173.597656 118.960938 175.871094 L 132.761719 189.824219 C 134.984375 192.074219 138.511719 192.40625 141.117188 190.59375 L 157.167969 179.527344 C 160.234375 181.085938 163.378906 182.390625 166.597656 183.4375 L 169.84375 202.679688 C 170.378906 205.824219 173.089844 208.125 176.257812 208.148438 L 195.882812 208.25 L 195.910156 208.25 C 199.105469 208.25 201.839844 205.953125 202.375 202.808594 L 205.621094 183.589844 C 208.816406 182.566406 211.933594 181.289062 214.921875 179.757812 L 230.894531 191.105469 C 233.476562 192.945312 237.003906 192.664062 239.277344 190.4375 L 253.230469 176.640625 C 255.503906 174.390625 255.8125 170.8125 253.972656 168.207031 L 242.652344 152.3125 C 244.210938 149.320312 245.511719 146.226562 246.558594 143.035156 L 265.878906 139.761719 C 269.023438 139.226562 271.324219 136.515625 271.347656 133.347656 L 271.453125 113.722656 C 271.476562 110.527344 269.175781 107.792969 266.007812 107.257812 L 246.839844 104.011719 C 245.84375 100.789062 244.542969 97.648438 243.035156 94.605469 L 254.304688 78.710938 C 256.144531 76.128906 255.863281 72.578125 253.640625 70.328125 L 239.863281 56.375 C 237.589844 54.074219 234.011719 53.792969 231.40625 55.632812 L 215.6875 66.828125 C 212.671875 65.242188 209.554688 63.914062 206.335938 62.867188 L 203.269531 43.777344 C 202.757812 40.632812 200.050781 38.308594 196.855469 38.28125 L 177.226562 38.152344 Z M 186.148438 97.238281 C 192.917969 97.238281 199.691406 99.820312 204.828125 105.03125 C 215.023438 115.355469 214.949219 131.992188 204.625 142.191406 C 199.511719 147.25 192.84375 149.78125 186.171875 149.78125 C 179.375 149.78125 172.601562 147.175781 167.464844 141.984375 C 157.269531 131.660156 157.371094 115.023438 167.695312 104.804688 C 172.808594 99.742188 179.476562 97.238281 186.148438 97.238281 Z M 117.199219 208.25 C 101.992188 208.25 94.8125 211.164062 87.222656 214.257812 L 83.773438 215.636719 C 67.980469 221.769531 40.789062 234.574219 39.636719 235.136719 C 36.367188 236.667969 34.960938 240.554688 36.496094 243.824219 C 38.054688 247.097656 67.160156 311.675781 68.667969 314.027344 C 70.609375 317.066406 74.648438 317.9375 77.691406 315.992188 L 93.839844 305.667969 C 100.585938 301.425781 103.21875 300.328125 112.90625 305.261719 L 125.9375 311.90625 C 140.683594 319.417969 160.898438 329.71875 167.289062 332.757812 C 176.894531 337.359375 184.894531 339.097656 191.742188 339.097656 C 203.601562 339.097656 211.957031 333.90625 219.214844 329.4375 C 220.773438 328.464844 222.332031 327.492188 223.917969 326.597656 C 235.007812 320.285156 312.542969 269.660156 320.671875 264.015625 C 330.203125 257.394531 335.597656 250.394531 336.667969 243.238281 C 337.410156 238.355469 336.644531 233.550781 330.945312 229.71875 C 323.484375 224.710938 311.421875 232.25 311.421875 232.25 L 250.597656 272.164062 C 247.328125 283.179688 237.078125 293.300781 215.84375 293.300781 L 181.496094 293.300781 C 167.875 293.300781 149.601562 289.3125 141.449219 287.371094 C 141.273438 287.320312 138.945312 286.757812 138.945312 286.757812 C 136.136719 286.015625 134.066406 283.460938 134.066406 280.421875 C 134.066406 276.816406 137.003906 273.878906 140.605469 273.878906 C 141.246094 273.878906 142.421875 274.132812 142.421875 274.132812 C 148.402344 275.617188 167.953125 280.214844 181.496094 280.214844 L 215.84375 280.214844 C 230.871094 280.214844 238.742188 274.082031 238.742188 263.859375 C 238.742188 254.480469 231.277344 247.503906 215.84375 247.503906 C 203.089844 247.503906 188.039062 245.152344 173.421875 241.191406 C 163.761719 238.585938 155.710938 218.269531 138.152344 211.164062 C 136.699219 210.578125 130.054688 208.25 117.199219 208.25 Z M 248.960938 208.378906 C 240.65625 208.378906 232.300781 211.574219 227.625 214.308594 C 226.601562 214.945312 209.710938 225.449219 197.289062 233.195312 C 203.066406 233.933594 209.148438 234.421875 215.84375 234.421875 C 219.828125 234.421875 223.304688 234.90625 226.601562 235.621094 L 261.332031 214.078125 C 262.097656 213.566406 263.144531 213.003906 264.320312 212.417969 C 260.488281 210.167969 255.429688 208.378906 248.960938 208.378906 Z M 287.859375 217.273438 C 286.886719 217.273438 285.863281 217.324219 284.765625 217.425781 C 280.601562 217.808594 275.820312 220.519531 275.820312 220.519531 L 241.066406 242.0625 C 246.050781 245.972656 249.21875 251.007812 250.699219 256.421875 L 290.386719 230.410156 L 301.710938 222.972656 C 301.121094 222.308594 300.457031 221.667969 299.714844 221.054688 C 299.613281 220.953125 299.511719 220.875 299.382812 220.800781 C 298.667969 220.210938 297.800781 219.675781 296.878906 219.1875 C 296.699219 219.113281 296.519531 219.035156 296.316406 218.960938 C 295.347656 218.5 294.246094 218.117188 293.019531 217.835938 C 292.816406 217.785156 292.585938 217.757812 292.382812 217.707031 C 291.050781 217.453125 289.597656 217.273438 287.933594 217.273438 C 287.910156 217.273438 287.882812 217.273438 287.859375 217.273438 Z M 287.859375 217.273438 " fill-opacity="1" fill-rule="nonzero"/></g></svg>