<svg xmlns="http://www.w3.org/2000/svg" xmlns:xlink="http://www.w3.org/1999/xlink" width="500" zoomAndPan="magnify" viewBox="0 0 375 374.999991" height="500" preserveAspectRatio="xMidYMid meet" version="1.0"><defs><clipPath id="677498ec72"><path d="M 36.421875 36.960938 L 337.171875 36.960938 L 337.171875 337.710938 L 36.421875 337.710938 Z M 36.421875 36.960938 " clip-rule="nonzero"/></clipPath></defs><g clip-path="url(#677498ec72)"><path fill="#000000" d="M 186.796875 36.960938 C 103.878906 36.960938 36.421875 104.417969 36.421875 187.335938 C 36.421875 270.253906 103.878906 337.710938 186.796875 337.710938 C 269.714844 337.710938 337.171875 270.253906 337.171875 187.335938 C 337.171875 104.417969 269.714844 36.960938 186.796875 36.960938 Z M 281.941406 276.261719 C 262.328125 242.757812 226.367188 221.761719 186.792969 221.761719 C 147.226562 221.761719 111.269531 242.757812 91.652344 276.265625 C 69.855469 252.960938 56.472656 221.6875 56.472656 187.335938 C 56.472656 115.472656 114.933594 57.011719 186.796875 57.011719 C 258.660156 57.011719 317.121094 115.472656 317.121094 187.335938 C 317.121094 221.6875 303.738281 252.960938 281.941406 276.261719 Z M 281.941406 276.261719 " fill-opacity="1" fill-rule="nonzero"/></g><path fill="#000000" d="M 186.796875 81.414062 C 152.996094 81.414062 125.496094 108.914062 125.496094 142.714844 C 125.496094 176.515625 152.996094 204.019531 186.796875 204.019531 C 220.597656 204.019531 248.101562 176.515625 248.101562 142.714844 C 248.101562 108.914062 220.597656 81.414062 186.796875 81.414062 Z M 186.796875 81.414062 " fill-opacity="1" fill-rule="nonzero"/></svg>